# xmcd CD database file
#
# Track frame offsets:
#	150
#	17140
#	35507
#	58450
#	77090
#	103745
#	121085
#	141467
#	163200
#	183512
#	203037
#	223450
#
# Disc length: 3314 seconds
#
# Revision: 0
# Processed by: cddbd v1.5.2PL0 Copyright (c) Steve Scherf et al.
# Submitted via: CDex 1.70beta2
#
DISCID=ba0cf00c
DTITLE=Mitsuaki Kishi - Another Break
DYEAR=2002
DGENRE=Jazz
TTITLE0=Ac-Cent-Tchu-Ate The Positive
TTITLE1=As Long As I Live
TTITLE2=Comes Love
TTITLE3=In The Wee Small Hours Of The Morning
TTITLE4=Charade
TTITLE5=How About You ?
TTITLE6=I Surrender Dear
TTITLE7=I Can't Believe That You're In Love With Me
TTITLE8=What Is There To Say
TTITLE9=Don't Get Around Much Anymore
TTITLE10=Everything Happens To Me
TTITLE11=Dream
EXTD=YEAR: 2002
EXTT0=
EXTT1=
EXTT2=
EXTT3=
EXTT4=
EXTT5=
EXTT6=
EXTT7=
EXTT8=
EXTT9=
EXTT10=
EXTT11=
PLAYORDER=
